<?xml version='1.0' encoding='UTF-8' ?>
<!DOCTYPE svg PUBLIC "-//W3C//DTD SVG 1.1//EN" "http://www.w3.org/Graphics/SVG/1.1/DTD/svg11.dtd" [ 
 <!ATTLIST svg 
                                               xmlns:dsy CDATA #FIXED "http://www.3ds.com/print"  
                                               dsy:text-version CDATA #IMPLIED > 

                                               <!ATTLIST text 
                                               xmlns:dsy CDATA #FIXED "http://www.3ds.com/print" 
                                               dsy:text-version CDATA #IMPLIED > 
                                                ]>
<svg style = "background : rgb(255,255,255)" width = "420mm" xmlns = "http://www.w3.org/2000/svg" height = "297mm" version = "1.1" viewBox = "0 0 420 297" xmlns:dsy = "http://www.3ds.com/print" xmlns:xlink = "http://www.w3.org/1999/xlink" dsy:text-version = "21000"><g fill = "none" stroke = "rgb(255, 0, 0)" stroke-width = "0.13" stroke-linecap = "butt" stroke-linejoin = "miter"><path d = "M 340.217 122.578 L 340.217 148.578"/><path d = "M 335.2168 153.57813 A 4.9999924 4.9999924 0 0 0 340.2168 148.57814"/><path d = "M 345.21674 117.57816 A 4.9999924 4.9999924 0 0 0 340.21674 122.57814"/><path d = "M 199.65 153.578 L 335.217 153.578"/><path d = "M 200.25839 62.578156 A 87.499977 87.499977 0 1 0 199.6496 153.57811"/><path d = "M 390.217 62.5781 L 200.258 62.5781"/><path d = "M 345.217 117.578 L 390.217 117.578"/><path d = "M 390.21674 117.57813 A 4.9999924 4.9999924 0 0 0 395.21674 112.57814"/><path d = "M 395.217 67.5781 L 395.217 112.578"/><path d = "M 395.21674 67.57814 A 4.9999924 4.9999924 0 0 0 390.21674 62.578156"/><path d = "M 90.2168 113.078 L 90.2168 110.078"/><path d = "M 120.217 110.078 L 90.2168 110.078"/><path d = "M 120.217 110.078 L 120.217 113.078"/><path d = "M 90.2168 113.078 L 120.217 113.078"/><path d = "M 120.217 66.0781 L 120.217 69.0781"/><path d = "M 90.2168 69.0781 L 120.217 69.0781"/><path d = "M 90.2168 69.0781 L 90.2168 66.0781"/><path d = "M 120.217 66.0781 L 90.2168 66.0781"/><circle r = "5.4999924" cx = "125.21676" cy = "32.578125"/><circle r = "5.4999924" cx = "190.16866" cy = "145.07814"/><circle r = "5.4999924" cx = "60.264847" cy = "145.07814"/><path d = "M 390.217 66.0781 L 360.217 66.0781"/><path d = "M 390.217 66.0781 L 390.217 69.0781"/><path d = "M 360.217 69.0781 L 390.217 69.0781"/><path d = "M 360.217 69.0781 L 360.217 66.0781"/><path d = "M 390.217 110.078 L 360.217 110.078"/><path d = "M 390.217 110.078 L 390.217 113.078"/><path d = "M 360.217 113.078 L 390.217 113.078"/><path d = "M 360.217 113.078 L 360.217 110.078"/><path d = "M 255.217 143.578 L 255.217 128.578"/><path d = "M 261.217 143.578 L 255.217 143.578"/><path d = "M 255.217 128.578 L 261.217 128.578"/><path d = "M 261.217 128.578 L 261.217 143.578"/><path d = "M 324.217 143.578 L 324.217 128.578"/><path d = "M 330.217 143.578 L 324.217 143.578"/><path d = "M 324.217 128.578 L 330.217 128.578"/><path d = "M 330.217 128.578 L 330.217 143.578"/><path d = "M 162.717 154.578 L 162.717 119.578"/><path d = "M 165.717 154.578 L 162.717 154.578"/><path d = "M 162.717 119.578 L 165.717 119.578"/><path d = "M 165.717 119.578 L 165.717 154.578"/><path d = "M 136.717 154.578 L 136.717 119.578"/><path d = "M 139.717 154.578 L 136.717 154.578"/><path d = "M 136.717 119.578 L 139.717 119.578"/><path d = "M 139.717 119.578 L 139.717 154.578"/><path d = "M 84.7167 154.578 L 84.7167 119.578"/><path d = "M 87.7167 154.578 L 84.7167 154.578"/><path d = "M 84.7167 119.578 L 87.7167 119.578"/><path d = "M 87.7167 119.578 L 87.7167 154.578"/><path d = "M 110.717 154.578 L 110.717 119.578"/><path d = "M 113.717 154.578 L 110.717 154.578"/><path d = "M 110.717 119.578 L 113.717 119.578"/><path d = "M 113.717 119.578 L 113.717 154.578"/><circle r = "3.2499924" cx = "292.71674" cy = "136.07814"/></g></svg>
