<?xml version='1.0' encoding='UTF-8' ?>
<!DOCTYPE svg PUBLIC "-//W3C//DTD SVG 1.1//EN" "http://www.w3.org/Graphics/SVG/1.1/DTD/svg11.dtd" [ 
 <!ATTLIST svg 
                                               xmlns:dsy CDATA #FIXED "http://www.3ds.com/print"  
                                               dsy:text-version CDATA #IMPLIED > 

                                               <!ATTLIST text 
                                               xmlns:dsy CDATA #FIXED "http://www.3ds.com/print" 
                                               dsy:text-version CDATA #IMPLIED > 
                                                ]>
<svg style = "background : rgb(255,255,255)" width = "420mm" xmlns = "http://www.w3.org/2000/svg" height = "297mm" version = "1.1" viewBox = "0 0 420 297" xmlns:dsy = "http://www.3ds.com/print" xmlns:xlink = "http://www.w3.org/1999/xlink" dsy:text-version = "21000"><g fill = "none" stroke = "rgb(255, 0, 0)" stroke-width = "0.13" stroke-linecap = "butt" stroke-linejoin = "miter"><path d = "M 87.5 166 L 327.5 166"/><path d = "M 309.5 150 L 307.5 150"/><path d = "M 307.5 153 L 307.5 150"/><path d = "M 309.5 149.99998 A 1 1 0 0 0 310.5 148.99998"/><path d = "M 357.5 165 L 357.5 171"/><path d = "M 372.5 165 L 357.5 165"/><path d = "M 372.5 164.99998 A 20 20 0 0 0 372.5 124.99998"/><path d = "M 47.5 125 L 372.5 125"/><path d = "M 47.500015 124.99998 A 20 20 0 0 0 47.500015 164.99998"/><path d = "M 57.5 165 L 47.5 165"/><path d = "M 57.5 165 L 57.5 171"/><path d = "M 57.500015 170.99998 A 1 1 0 0 0 58.500015 171.99998"/><path d = "M 58.5 172 L 86.5 172"/><path d = "M 86.500015 171.99998 A 1 1 0 0 0 87.500015 170.99998"/><path d = "M 87.5 166 L 87.5 171"/><path d = "M 327.5 166 L 327.5 171"/><path d = "M 327.5 170.99998 A 1 1 0 0 0 328.5 171.99998"/><path d = "M 328.5 172 L 356.5 172"/><path d = "M 356.5 171.99998 A 1 1 0 0 0 357.5 170.99998"/><circle r = "3" cx = "47.500015" cy = "144.99998"/><circle r = "2" cx = "71.500015" cy = "135.89998"/><circle r = "2" cx = "38.500015" cy = "154.09999"/><circle r = "2" cx = "71.500015" cy = "154.09999"/><circle r = "2" cx = "38.500015" cy = "135.89998"/><path d = "M 87.3 128 L 87.3 131.2"/><path d = "M 87.3 128 L 307.5 128"/><path d = "M 307.5 131.2 L 307.5 128"/><path d = "M 307.5 131.2 L 87.3 131.2"/><path d = "M 307.5 140 L 309.5 140"/><path d = "M 307.5 140 L 307.5 137"/><path d = "M 307.5 137 L 382.5 137"/><path d = "M 382.5 137 L 382.5 153"/><path d = "M 382.5 153 L 307.5 153"/><path d = "M 310.5 149 L 310.5 141"/><path d = "M 310.5 140.99998 A 1 1 0 0 0 309.5 139.99998"/></g></svg>
