<?xml version='1.0' encoding='UTF-8' ?>
<!DOCTYPE svg PUBLIC "-//W3C//DTD SVG 1.1//EN" "http://www.w3.org/Graphics/SVG/1.1/DTD/svg11.dtd" [ 
 <!ATTLIST svg 
                                               xmlns:dsy CDATA #FIXED "http://www.3ds.com/print"  
                                               dsy:text-version CDATA #IMPLIED > 

                                               <!ATTLIST text 
                                               xmlns:dsy CDATA #FIXED "http://www.3ds.com/print" 
                                               dsy:text-version CDATA #IMPLIED > 
                                                ]>
<svg style = "background : rgb(255,255,255)" width = "420mm" xmlns = "http://www.w3.org/2000/svg" height = "297mm" version = "1.1" viewBox = "0 0 420 297" xmlns:dsy = "http://www.3ds.com/print" xmlns:xlink = "http://www.w3.org/1999/xlink" dsy:text-version = "21000"><g fill = "none" stroke = "rgb(255, 0, 0)" stroke-width = "0.13" stroke-linecap = "butt" stroke-linejoin = "miter"><path d = "M 100 126 L 100 128"/><path d = "M 101.00001 124.99998 A 1 1 0 0 0 100.00001 125.99998"/><path d = "M 101 125 L 319 125"/><path d = "M 320 125.99998 A 1 1 0 0 0 319 124.99998"/><path d = "M 320 128 L 320 126"/><path d = "M 100 169 L 100 171"/><path d = "M 100.00001 170.99998 A 1 1 0 0 0 101.00001 171.99998"/><path d = "M 319 172 L 101 172"/><path d = "M 319 171.99998 A 1 1 0 0 0 320 170.99998"/><path d = "M 320 171 L 320 169"/><path d = "M 90 129 L 90 168"/><path d = "M 91.000015 127.99998 A 1 1 0 0 0 90.000015 128.99998"/><path d = "M 90.000015 167.99998 A 1 1 0 0 0 91.000015 168.99998"/><path d = "M 100 169 L 91 169"/><path d = "M 329 169 L 320 169"/><path d = "M 329 168.99998 A 1 1 0 0 0 330 167.99998"/><path d = "M 330 168 L 330 129"/><path d = "M 330 128.99998 A 1 1 0 0 0 329 127.99998"/><path d = "M 320 128 L 329 128"/><path d = "M 91 128 L 100 128"/></g></svg>
